<svg xmlns="http://www.w3.org/2000/svg" xmlns:xlink="http://www.w3.org/1999/xlink" width="500" zoomAndPan="magnify" viewBox="0 0 375 374.999991" height="500" preserveAspectRatio="xMidYMid meet" version="1.0"><defs><g/><clipPath id="9a2ff4d54b"><path d="M 29 146.519531 L 108 146.519531 L 108 228.269531 L 29 228.269531 Z M 29 146.519531 " clip-rule="nonzero"/></clipPath><clipPath id="0b24859bc1"><path d="M 17.144531 180 L 26 180 L 26 210 L 17.144531 210 Z M 17.144531 180 " clip-rule="nonzero"/></clipPath><clipPath id="adb59af0ba"><path d="M 111 180 L 119.894531 180 L 119.894531 210 L 111 210 Z M 111 180 " clip-rule="nonzero"/></clipPath></defs><g clip-path="url(#9a2ff4d54b)"><path fill="#ffffff" d="M 90.34375 228.46875 L 46.8125 228.46875 C 37.222656 228.46875 29.445312 220.6875 29.445312 211.164062 L 29.445312 182.945312 C 29.445312 173.355469 37.222656 165.578125 46.8125 165.578125 L 66.707031 165.578125 L 66.769531 158.945312 C 64.175781 158.160156 62.246094 155.75 62.246094 152.855469 C 62.246094 149.359375 65.140625 146.523438 68.636719 146.523438 C 72.136719 146.523438 75.03125 149.359375 75.03125 152.855469 C 75.03125 155.75 73.039062 158.222656 70.386719 159.003906 L 70.328125 165.578125 L 90.34375 165.578125 C 99.871094 165.578125 107.648438 173.355469 107.648438 182.945312 L 107.648438 211.222656 C 107.648438 220.75 99.871094 228.46875 90.34375 228.46875 Z M 52.238281 201.09375 C 47.113281 201.09375 43.074219 197.054688 43.074219 191.988281 C 43.074219 186.863281 47.113281 182.824219 52.238281 182.824219 C 57.363281 182.824219 61.34375 186.863281 61.34375 191.988281 C 61.34375 197.054688 57.363281 201.09375 52.238281 201.09375 Z M 52.238281 186.441406 C 49.101562 186.441406 46.691406 188.851562 46.691406 191.988281 C 46.691406 195.0625 49.101562 197.476562 52.238281 197.476562 C 55.3125 197.476562 57.785156 195.0625 57.785156 191.988281 C 57.785156 188.851562 55.3125 186.441406 52.238281 186.441406 Z M 84.976562 200.730469 C 79.851562 200.730469 75.753906 196.628906 75.753906 191.566406 C 75.753906 186.5 79.851562 182.402344 84.976562 182.402344 C 89.984375 182.402344 94.082031 186.5 94.082031 191.566406 C 94.082031 196.628906 89.984375 200.730469 84.976562 200.730469 Z M 84.976562 186.019531 C 81.84375 186.019531 79.371094 188.550781 79.371094 191.566406 C 79.371094 194.640625 81.84375 197.171875 84.976562 197.171875 C 88.054688 197.171875 90.464844 194.640625 90.464844 191.566406 C 90.464844 188.429688 87.992188 186.019531 84.976562 186.019531 Z M 67.914062 211.703125 C 64.476562 211.703125 61.460938 210.078125 59.773438 208.628906 C 58.992188 207.964844 58.929688 206.761719 59.59375 206.097656 C 60.257812 205.375 61.34375 205.253906 62.125 205.976562 C 62.667969 206.460938 67.914062 210.621094 72.917969 206.035156 C 73.644531 205.375 74.726562 205.375 75.511719 206.097656 C 76.175781 206.882812 76.175781 207.964844 75.453125 208.691406 C 72.917969 210.859375 70.328125 211.703125 67.914062 211.703125 Z M 67.914062 211.703125 " fill-opacity="1" fill-rule="evenodd"/></g><g clip-path="url(#0b24859bc1)"><path fill="#ffffff" d="M 25.828125 209.113281 L 25.105469 209.113281 C 20.761719 209.113281 17.144531 205.554688 17.144531 201.152344 L 17.144531 188.851562 C 17.144531 184.449219 20.761719 180.832031 25.105469 180.832031 L 25.949219 180.832031 C 25.886719 181.496094 25.828125 182.21875 25.828125 182.945312 Z M 25.828125 209.113281 " fill-opacity="1" fill-rule="evenodd"/></g><g clip-path="url(#adb59af0ba)"><path fill="#ffffff" d="M 111.992188 209.113281 L 111.265625 209.113281 L 111.265625 182.945312 C 111.265625 182.160156 111.207031 181.4375 111.148438 180.773438 L 111.992188 180.773438 C 116.453125 180.773438 120.070312 184.332031 120.070312 188.792969 L 120.070312 201.152344 C 120.070312 205.613281 116.453125 209.113281 111.992188 209.113281 Z M 111.992188 209.113281 " fill-opacity="1" fill-rule="evenodd"/></g><g fill="#ffffff" fill-opacity="1"><g transform="translate(153.221624, 210.706032)"><g><path d="M 17.484375 0.609375 C 14.410156 0.609375 11.382812 0.257812 8.40625 -0.4375 C 5.425781 -1.132812 3.03125 -2.050781 1.21875 -3.1875 L 5.078125 -12 C 6.753906 -10.957031 8.742188 -10.128906 11.046875 -9.515625 C 13.359375 -8.910156 15.640625 -8.609375 17.890625 -8.609375 C 19.972656 -8.609375 21.453125 -8.820312 22.328125 -9.25 C 23.210938 -9.675781 23.65625 -10.300781 23.65625 -11.125 C 23.65625 -11.9375 23.125 -12.507812 22.0625 -12.84375 C 21 -13.1875 19.316406 -13.515625 17.015625 -13.828125 C 14.078125 -14.191406 11.578125 -14.664062 9.515625 -15.25 C 7.460938 -15.84375 5.691406 -16.925781 4.203125 -18.5 C 2.710938 -20.082031 1.96875 -22.300781 1.96875 -25.15625 C 1.96875 -27.5 2.664062 -29.585938 4.0625 -31.421875 C 5.46875 -33.253906 7.515625 -34.703125 10.203125 -35.765625 C 12.890625 -36.828125 16.109375 -37.359375 19.859375 -37.359375 C 22.523438 -37.359375 25.171875 -37.085938 27.796875 -36.546875 C 30.421875 -36.003906 32.613281 -35.234375 34.375 -34.234375 L 30.515625 -25.484375 C 27.253906 -27.296875 23.726562 -28.203125 19.9375 -28.203125 C 17.894531 -28.203125 16.398438 -27.960938 15.453125 -27.484375 C 14.503906 -27.015625 14.03125 -26.394531 14.03125 -25.625 C 14.03125 -24.769531 14.550781 -24.171875 15.59375 -23.828125 C 16.632812 -23.492188 18.351562 -23.144531 20.75 -22.78125 C 23.769531 -22.332031 26.273438 -21.8125 28.265625 -21.21875 C 30.253906 -20.632812 31.984375 -19.5625 33.453125 -18 C 34.921875 -16.4375 35.65625 -14.253906 35.65625 -11.453125 C 35.65625 -9.148438 34.953125 -7.082031 33.546875 -5.25 C 32.148438 -3.425781 30.082031 -1.992188 27.34375 -0.953125 C 24.613281 0.0859375 21.328125 0.609375 17.484375 0.609375 Z M 17.484375 0.609375 "/></g></g></g><g fill="#ffffff" fill-opacity="1"><g transform="translate(184.743709, 210.706032)"><g><path d="M 52 -37.359375 C 56.519531 -37.359375 60.125 -36 62.8125 -33.28125 C 65.5 -30.570312 66.84375 -26.484375 66.84375 -21.015625 L 66.84375 0 L 53.96875 0 L 53.96875 -18.921875 C 53.96875 -21.492188 53.476562 -23.390625 52.5 -24.609375 C 51.53125 -25.828125 50.164062 -26.4375 48.40625 -26.4375 C 46.457031 -26.4375 44.894531 -25.757812 43.71875 -24.40625 C 42.550781 -23.050781 41.96875 -20.992188 41.96875 -18.234375 L 41.96875 0 L 29.078125 0 L 29.078125 -18.921875 C 29.078125 -23.929688 27.226562 -26.4375 23.53125 -26.4375 C 21.539062 -26.4375 19.957031 -25.757812 18.78125 -24.40625 C 17.601562 -23.050781 17.015625 -20.992188 17.015625 -18.234375 L 17.015625 0 L 4.140625 0 L 4.140625 -36.75 L 16.40625 -36.75 L 16.40625 -32.875 C 17.757812 -34.375 19.375 -35.492188 21.25 -36.234375 C 23.125 -36.984375 25.171875 -37.359375 27.390625 -37.359375 C 29.960938 -37.359375 32.265625 -36.882812 34.296875 -35.9375 C 36.335938 -34.988281 37.988281 -33.539062 39.25 -31.59375 C 40.695312 -33.445312 42.523438 -34.867188 44.734375 -35.859375 C 46.953125 -36.859375 49.375 -37.359375 52 -37.359375 Z M 52 -37.359375 "/></g></g></g><g fill="#ffffff" fill-opacity="1"><g transform="translate(250.025803, 210.706032)"><g><path d="M 19.796875 -37.359375 C 25.898438 -37.359375 30.554688 -35.96875 33.765625 -33.1875 C 36.972656 -30.40625 38.578125 -26.144531 38.578125 -20.40625 L 38.578125 0 L 26.578125 0 L 26.578125 -4.75 C 24.722656 -1.175781 21.109375 0.609375 15.734375 0.609375 C 12.878906 0.609375 10.410156 0.113281 8.328125 -0.875 C 6.253906 -1.875 4.6875 -3.21875 3.625 -4.90625 C 2.5625 -6.601562 2.03125 -8.539062 2.03125 -10.71875 C 2.03125 -14.195312 3.363281 -16.894531 6.03125 -18.8125 C 8.695312 -20.726562 12.8125 -21.6875 18.375 -21.6875 L 25.6875 -21.6875 C 25.46875 -25.582031 22.867188 -27.53125 17.890625 -27.53125 C 16.128906 -27.53125 14.34375 -27.242188 12.53125 -26.671875 C 10.726562 -26.109375 9.195312 -25.332031 7.9375 -24.34375 L 3.59375 -33.078125 C 5.625 -34.441406 8.097656 -35.492188 11.015625 -36.234375 C 13.929688 -36.984375 16.859375 -37.359375 19.796875 -37.359375 Z M 19.328125 -7.53125 C 20.816406 -7.53125 22.125 -7.890625 23.25 -8.609375 C 24.382812 -9.328125 25.195312 -10.390625 25.6875 -11.796875 L 25.6875 -14.984375 L 20.140625 -14.984375 C 16.390625 -14.984375 14.515625 -13.738281 14.515625 -11.25 C 14.515625 -10.125 14.941406 -9.222656 15.796875 -8.546875 C 16.648438 -7.867188 17.828125 -7.53125 19.328125 -7.53125 Z M 19.328125 -7.53125 "/></g></g></g><g fill="#ffffff" fill-opacity="1"><g transform="translate(287.038973, 210.706032)"><g><path d="M 16.40625 -32.34375 C 17.71875 -34.007812 19.421875 -35.257812 21.515625 -36.09375 C 23.617188 -36.9375 26.03125 -37.359375 28.75 -37.359375 L 28.75 -25.765625 C 27.570312 -25.898438 26.597656 -25.96875 25.828125 -25.96875 C 23.066406 -25.96875 20.90625 -25.21875 19.34375 -23.71875 C 17.789062 -22.226562 17.015625 -19.945312 17.015625 -16.875 L 17.015625 0 L 4.140625 0 L 4.140625 -36.75 L 16.40625 -36.75 Z M 16.40625 -32.34375 "/></g></g></g><g fill="#ffffff" fill-opacity="1"><g transform="translate(311.510771, 210.706032)"><g><path d="M 29.484375 -1.484375 C 28.398438 -0.804688 27.078125 -0.289062 25.515625 0.0625 C 23.960938 0.425781 22.304688 0.609375 20.546875 0.609375 C 15.753906 0.609375 12.066406 -0.5625 9.484375 -2.90625 C 6.910156 -5.257812 5.625 -8.765625 5.625 -13.421875 L 5.625 -25.765625 L 0.265625 -25.765625 L 0.265625 -35.390625 L 5.625 -35.390625 L 5.625 -44.953125 L 18.515625 -44.953125 L 18.515625 -35.390625 L 26.921875 -35.390625 L 26.921875 -25.765625 L 18.515625 -25.765625 L 18.515625 -13.5625 C 18.515625 -12.25 18.863281 -11.21875 19.5625 -10.46875 C 20.257812 -9.726562 21.195312 -9.359375 22.375 -9.359375 C 23.863281 -9.359375 25.175781 -9.742188 26.3125 -10.515625 Z M 29.484375 -1.484375 "/></g></g></g><g fill="#ffffff" fill-opacity="1"><g transform="translate(188.285426, 231.466853)"><g><path d="M 5.796875 -1.203125 L 5.796875 0 L 0.765625 0 L 0.765625 -6.484375 L 5.671875 -6.484375 L 5.671875 -5.28125 L 2.265625 -5.28125 L 2.265625 -3.875 L 5.265625 -3.875 L 5.265625 -2.703125 L 2.265625 -2.703125 L 2.265625 -1.203125 Z M 5.796875 -1.203125 "/></g></g></g><g fill="#ffffff" fill-opacity="1"><g transform="translate(201.922276, 231.466853)"><g><path d="M 0.765625 -6.484375 L 3.71875 -6.484375 C 4.414062 -6.484375 5.035156 -6.347656 5.578125 -6.078125 C 6.117188 -5.816406 6.539062 -5.441406 6.84375 -4.953125 C 7.144531 -4.460938 7.296875 -3.894531 7.296875 -3.25 C 7.296875 -2.59375 7.144531 -2.019531 6.84375 -1.53125 C 6.539062 -1.050781 6.117188 -0.675781 5.578125 -0.40625 C 5.035156 -0.132812 4.414062 0 3.71875 0 L 0.765625 0 Z M 3.640625 -1.234375 C 4.285156 -1.234375 4.800781 -1.410156 5.1875 -1.765625 C 5.570312 -2.128906 5.765625 -2.625 5.765625 -3.25 C 5.765625 -3.863281 5.570312 -4.347656 5.1875 -4.703125 C 4.800781 -5.066406 4.285156 -5.25 3.640625 -5.25 L 2.265625 -5.25 L 2.265625 -1.234375 Z M 3.640625 -1.234375 "/></g></g></g><g fill="#ffffff" fill-opacity="1"><g transform="translate(216.995639, 231.466853)"><g><path d="M 3.65625 0.109375 C 2.726562 0.109375 2.003906 -0.144531 1.484375 -0.65625 C 0.972656 -1.164062 0.71875 -1.898438 0.71875 -2.859375 L 0.71875 -6.484375 L 2.21875 -6.484375 L 2.21875 -2.90625 C 2.21875 -1.75 2.695312 -1.171875 3.65625 -1.171875 C 4.125 -1.171875 4.484375 -1.3125 4.734375 -1.59375 C 4.984375 -1.875 5.109375 -2.3125 5.109375 -2.90625 L 5.109375 -6.484375 L 6.59375 -6.484375 L 6.59375 -2.859375 C 6.59375 -1.898438 6.332031 -1.164062 5.8125 -0.65625 C 5.300781 -0.144531 4.582031 0.109375 3.65625 0.109375 Z M 3.65625 0.109375 "/></g></g></g><g fill="#ffffff" fill-opacity="1"><g transform="translate(231.716823, 231.466853)"><g><path d="M 3.875 0.109375 C 3.207031 0.109375 2.609375 -0.03125 2.078125 -0.3125 C 1.546875 -0.601562 1.125 -1.003906 0.8125 -1.515625 C 0.507812 -2.023438 0.359375 -2.601562 0.359375 -3.25 C 0.359375 -3.882812 0.507812 -4.457031 0.8125 -4.96875 C 1.125 -5.476562 1.546875 -5.875 2.078125 -6.15625 C 2.609375 -6.445312 3.207031 -6.59375 3.875 -6.59375 C 4.4375 -6.59375 4.945312 -6.492188 5.40625 -6.296875 C 5.863281 -6.097656 6.242188 -5.816406 6.546875 -5.453125 L 5.59375 -4.5625 C 5.144531 -5.0625 4.597656 -5.3125 3.953125 -5.3125 C 3.554688 -5.3125 3.195312 -5.222656 2.875 -5.046875 C 2.5625 -4.878906 2.316406 -4.632812 2.140625 -4.3125 C 1.960938 -4 1.875 -3.644531 1.875 -3.25 C 1.875 -2.84375 1.960938 -2.484375 2.140625 -2.171875 C 2.316406 -1.859375 2.5625 -1.613281 2.875 -1.4375 C 3.195312 -1.257812 3.554688 -1.171875 3.953125 -1.171875 C 4.597656 -1.171875 5.144531 -1.425781 5.59375 -1.9375 L 6.546875 -1.046875 C 6.242188 -0.671875 5.863281 -0.382812 5.40625 -0.1875 C 4.945312 0.0078125 4.4375 0.109375 3.875 0.109375 Z M 3.875 0.109375 "/></g></g></g><g fill="#ffffff" fill-opacity="1"><g transform="translate(245.92828, 231.466853)"><g><path d="M 5.046875 -1.390625 L 2.03125 -1.390625 L 1.453125 0 L -0.078125 0 L 2.8125 -6.484375 L 4.296875 -6.484375 L 7.1875 0 L 5.609375 0 Z M 4.5625 -2.53125 L 3.546875 -5.015625 L 2.515625 -2.53125 Z M 4.5625 -2.53125 "/></g></g></g><g fill="#ffffff" fill-opacity="1"><g transform="translate(260.445574, 231.466853)"><g><path d="M 2.109375 -5.265625 L 0.03125 -5.265625 L 0.03125 -6.484375 L 5.6875 -6.484375 L 5.6875 -5.265625 L 3.609375 -5.265625 L 3.609375 0 L 2.109375 0 Z M 2.109375 -5.265625 "/></g></g></g><g fill="#ffffff" fill-opacity="1"><g transform="translate(273.59123, 231.466853)"><g><path d="M 0.765625 -6.484375 L 2.265625 -6.484375 L 2.265625 0 L 0.765625 0 Z M 0.765625 -6.484375 "/></g></g></g><g fill="#ffffff" fill-opacity="1"><g transform="translate(284.04923, 231.466853)"><g><path d="M 3.90625 0.109375 C 3.238281 0.109375 2.632812 -0.0351562 2.09375 -0.328125 C 1.550781 -0.617188 1.125 -1.015625 0.8125 -1.515625 C 0.507812 -2.023438 0.359375 -2.601562 0.359375 -3.25 C 0.359375 -3.882812 0.507812 -4.453125 0.8125 -4.953125 C 1.125 -5.460938 1.550781 -5.863281 2.09375 -6.15625 C 2.632812 -6.445312 3.238281 -6.59375 3.90625 -6.59375 C 4.582031 -6.59375 5.1875 -6.445312 5.71875 -6.15625 C 6.257812 -5.863281 6.679688 -5.460938 6.984375 -4.953125 C 7.296875 -4.453125 7.453125 -3.882812 7.453125 -3.25 C 7.453125 -2.601562 7.296875 -2.023438 6.984375 -1.515625 C 6.679688 -1.015625 6.257812 -0.617188 5.71875 -0.328125 C 5.1875 -0.0351562 4.582031 0.109375 3.90625 0.109375 Z M 3.90625 -1.171875 C 4.289062 -1.171875 4.632812 -1.257812 4.9375 -1.4375 C 5.25 -1.613281 5.492188 -1.859375 5.671875 -2.171875 C 5.847656 -2.484375 5.9375 -2.84375 5.9375 -3.25 C 5.9375 -3.644531 5.847656 -4 5.671875 -4.3125 C 5.492188 -4.632812 5.25 -4.878906 4.9375 -5.046875 C 4.632812 -5.222656 4.289062 -5.3125 3.90625 -5.3125 C 3.519531 -5.3125 3.171875 -5.222656 2.859375 -5.046875 C 2.554688 -4.878906 2.316406 -4.632812 2.140625 -4.3125 C 1.960938 -4 1.875 -3.644531 1.875 -3.25 C 1.875 -2.84375 1.960938 -2.484375 2.140625 -2.171875 C 2.316406 -1.859375 2.554688 -1.613281 2.859375 -1.4375 C 3.171875 -1.257812 3.519531 -1.171875 3.90625 -1.171875 Z M 3.90625 -1.171875 "/></g></g></g><g fill="#ffffff" fill-opacity="1"><g transform="translate(299.289411, 231.466853)"><g><path d="M 6.71875 -6.484375 L 6.71875 0 L 5.484375 0 L 2.25 -3.9375 L 2.25 0 L 0.765625 0 L 0.765625 -6.484375 L 2.015625 -6.484375 L 5.234375 -2.546875 L 5.234375 -6.484375 Z M 6.71875 -6.484375 "/></g></g></g></svg>